<?xml version="1.0" encoding="UTF-8"?>
<svg xmlns="http://www.w3.org/2000/svg" viewBox="0 0 63.6 107" fill="currentColor">
  <path d="m 64.846246,157.64378 c -0.253006,-0.0312 -0.735585,-0.15277 -1.072401,-0.27023 -1.182072,-0.41225 -1.33634,-0.58162 -1.33634,-1.4672 0,-0.33395 0.04338,-0.75648 0.09639,-0.93895 0.153165,-0.52719 0.306494,-0.64271 1.028328,-0.77477 0.345312,-0.0632 0.823255,-0.19427 1.062095,-0.29131 0.354992,-0.14426 0.551423,-0.17646 1.076143,-0.17646 0.600159,0 0.669607,-0.0155 1.068423,-0.23841 0.234598,-0.13113 0.646944,-0.30895 0.916327,-0.39517 0.269381,-0.0862 0.836135,-0.32754 1.25945,-0.53631 0.423316,-0.20876 0.878228,-0.43239 1.010916,-0.49695 0.176998,-0.0861 0.257812,-0.18261 0.303427,-0.36228 0.04506,-0.17748 0.255288,-0.43227 0.763762,-0.92564 0.613874,-0.59564 0.696044,-0.70284 0.657244,-0.85744 -0.02709,-0.10792 -0.0034,-0.23912 0.0608,-0.33716 0.05783,-0.0883 0.155341,-0.42506 0.216686,-0.74845 0.107502,-0.5667 0.1065,-0.59823 -0.02773,-0.87126 -0.121341,-0.24682 -0.130367,-0.33733 -0.07012,-0.70311 0.05969,-0.36238 0.04788,-0.48836 -0.08635,-0.92079 l -0.155501,-0.50097 0.190199,-0.32455 c 0.104609,-0.17851 0.250785,-0.50065 0.324834,-0.71588 0.07405,-0.21523 0.164087,-0.4268 0.200079,-0.47018 0.08342,-0.10051 -0.144327,-0.94178 -0.341188,-1.26031 -0.09171,-0.14839 -0.144224,-0.35492 -0.14581,-0.5735 -0.0013,-0.18787 -0.04748,-0.4203 -0.102475,-0.51651 -0.055,-0.0962 -0.101111,-0.30449 -0.102475,-0.46285 -0.0016,-0.17892 -0.05546,-0.3553 -0.142418,-0.46585 -0.08047,-0.10231 -0.13994,-0.28385 -0.13994,-0.42723 0,-0.13714 -0.09201,-0.50144 -0.204458,-0.80957 -0.469711,-1.28704 -0.972219,-3.19908 -1.546557,-5.88463 -0.576068,-2.69364 -0.953144,-4.15052 -1.566716,-6.05316 -0.831148,-2.57735 -1.153998,-3.95576 -1.43599,-6.13094 -0.23062,-1.77891 -0.276172,-2.7571 -0.361077,-7.75355 -0.06261,-3.68464 -0.06223,-5.22974 0.0016,-6.68209 0.12613,-2.8668 0.169709,-7.560228 0.0873,-9.402588 l -0.07317,-1.63598 -0.214023,-0.32316 c -0.393742,-0.59452 -1.86355,-3.70919 -2.358664,-4.99824 -0.337199,-0.87791 -1.055677,-2.99974 -1.186469,-3.50392 -0.05884,-0.22682 -0.182786,-0.84455 -0.275437,-1.37274 -0.09902,-0.56449 -0.326166,-1.44722 -0.551061,-2.1415 -0.210432,-0.64963 -0.432984,-1.40155 -0.494559,-1.67093 -0.06543,-0.28623 -0.225426,-0.6788 -0.384988,-0.94459 -0.150169,-0.25014 -0.383799,-0.76623 -0.519172,-1.14686 -0.241335,-0.67856 -0.541046,-1.2321 -0.667121,-1.2321 -0.03499,0 -0.157906,0.0794 -0.27316,0.17633 -0.115253,0.097 -0.361687,0.24289 -0.547631,0.32424 -0.185944,0.0814 -0.906738,0.45786 -1.601762,0.83666 -1.453975,0.79245 -1.591061,0.84706 -2.72458,1.08529 -2.135562,0.44883 -3.606483,1.05112 -4.46516,1.82831 -0.244371,0.22118 -0.567645,0.4443 -0.718385,0.49583 -0.15074,0.0515 -0.604676,0.25473 -1.00875,0.45154 -0.710893,0.34626 -0.7596,0.35926 -1.504343,0.40179 -0.868273,0.0496 -1.086033,0.13131 -1.428844,0.53626 -0.427957,0.50552 -0.493451,0.56296 -0.686403,0.60199 -0.106561,0.0215 -0.261632,0.1028 -0.344607,0.18054 -0.08297,0.0777 -0.311172,0.23999 -0.507112,0.36055 -0.339854,0.20911 -0.351429,0.22609 -0.251464,0.36881 0.135923,0.19406 0.134437,0.56652 -0.0027,0.68034 -0.05913,0.0491 -0.27166,0.14266 -0.472294,0.20798 l -0.36479,0.11875 -0.04424,1.32243 c -0.04666,1.39502 -0.207269,2.6147 -0.378774,2.87645 -0.0629,0.096 -0.253088,0.20031 -0.49162,0.26966 -0.21397,0.0622 -0.400073,0.14961 -0.413563,0.19425 -0.01349,0.0446 -0.04401,0.16978 -0.06783,0.27811 -0.03379,0.15368 -0.07735,0.19212 -0.198259,0.17492 -0.111036,-0.0158 -0.154958,-0.0699 -0.154958,-0.19076 0,-0.16066 -0.04187,-0.17652 -0.874621,-0.33142 -1.958086,-0.36421 -2.123061,-0.36679 -2.468966,-0.0386 -0.234172,0.22218 -0.421544,0.15336 -0.457396,-0.168 -0.02203,-0.19744 -0.05563,-0.21362 -1.25945,-0.60642 -1.604303,-0.52347 -1.965152,-0.59397 -3.475842,-0.67907 -0.692699,-0.039 -1.467536,-0.0896 -1.721862,-0.1125 -0.437424,-0.0393 -0.470102,-0.0318 -0.604808,0.13948 -0.119125,0.15145 -0.199368,0.18104 -0.490925,0.18104 -0.329097,0 -0.350798,-0.0114 -0.389358,-0.20418 -0.06691,-0.33456 -0.434181,-0.69042 -0.835576,-0.80962 -0.473797,-0.14071 -0.934921,-0.13861 -1.015071,0.005 -0.04756,0.085 -0.121711,0.0991 -0.322922,0.0613 -0.201255,-0.0378 -0.300361,-0.11107 -0.431955,-0.31952 -0.09392,-0.14879 -0.297875,-0.35464 -0.453222,-0.45744 l -0.282447,-0.18692 -0.105921,0.15123 c -0.155995,0.22271 -0.263206,0.19017 -0.212283,-0.0644 0.03427,-0.17137 -0.0032,-0.28275 -0.182538,-0.54227 -0.192415,-0.27846 -0.229507,-0.40062 -0.251692,-0.82892 -0.02208,-0.42618 0.0013,-0.56232 0.155178,-0.89812 0.266789,-0.58274 0.558093,-0.91114 0.999997,-1.12735 0.444056,-0.21725 0.836864,-0.24091 2.297086,-0.13836 0.73558,0.0517 0.913336,0.0413 1.434372,-0.0837 0.327108,-0.0785 0.86007,-0.17895 1.184359,-0.22328 0.956206,-0.13071 1.359294,-0.29697 2.276533,-0.93898 0.548483,-0.38384 0.55693,-0.39428 0.537432,-0.66433 -0.02216,-0.30698 0.100774,-0.59106 0.360944,-0.83406 0.151832,-0.14181 0.216832,-0.15643 0.503989,-0.11337 l 0.329676,0.0494 -0.04835,-0.22013 c -0.04421,-0.2013 -0.0284,-0.22859 0.184865,-0.31905 0.170333,-0.0722 0.288263,-0.20563 0.437398,-0.49474 0.284859,-0.55221 0.440012,-0.6414 0.935116,-0.53755 0.543434,0.11398 0.877865,0.35346 1.038263,0.74345 0.07229,0.17575 0.169942,0.31967 0.217017,0.31981 0.04707,1.4e-4 0.227082,-0.0685 0.400017,-0.15249 l 0.314428,-0.15277 0.01981,-0.70007 0.01981,-0.70008 0.66471,-0.48185 c 0.892415,-0.64691 1.619503,-1.06974 2.133816,-1.24089 0.366898,-0.1221 0.462246,-0.1924 0.693101,-0.51103 0.449613,-0.62055 1.064171,-1.00874 2.665684,-1.6838 0.423316,-0.17843 1.005813,-0.45934 1.294437,-0.62424 0.288623,-0.1649 0.713689,-0.37458 0.944587,-0.46597 0.645,-0.25527 2.118748,-1.00103 3.175335,-1.60681 0.524074,-0.30048 1.661303,-0.93227 2.527175,-1.40399 1.411126,-0.76876 3.285487,-1.92578 3.387713,-2.09119 0.02139,-0.0346 -0.02483,-0.24768 -0.102715,-0.47348 -0.22251,-0.64503 -0.38479,-1.34393 -0.688317,-2.96441 -0.412574,-2.20266 -0.587506,-2.67749 -1.383248,-3.75469 -0.203596,-0.2756 -0.424275,-0.61455 -0.490399,-0.75321 -0.107132,-0.22466 -0.174012,-0.26811 -0.614046,-0.39896 -0.609526,-0.18124 -1.072358,-0.41205 -1.286255,-0.64142 -0.135991,-0.14584 -0.207795,-0.16844 -0.43731,-0.13766 -0.233529,0.0313 -0.274598,0.0175 -0.274598,-0.0922 0,-0.071 0.08297,-0.19518 0.184367,-0.27604 0.235928,-0.18812 0.183865,-0.29429 -0.388376,-0.79201 -0.46646,-0.40571 -0.534636,-0.57058 -0.235949,-0.57058 0.128238,0 0.289749,0.0964 0.498134,0.29737 l 0.308367,0.29737 -0.04874,-0.45437 c -0.02681,-0.24991 -0.06115,-0.46679 -0.07631,-0.48195 -0.01515,-0.0152 -0.177476,0.0144 -0.360696,0.0657 -0.183217,0.0513 -0.428139,0.0865 -0.54427,0.0783 -0.26242,-0.0187 -0.824152,-0.19782 -1.1787,-0.37593 -0.278835,-0.14007 -2.212631,-2.06059 -2.21481,-2.19959 -7.93e-4,-0.0579 0.129465,-0.0544 0.482048,0.0127 0.760261,0.14486 1.127972,0.33775 1.605897,0.8424 0.235021,0.24816 0.508614,0.48211 0.607987,0.51989 0.09938,0.0378 0.42385,0.0687 0.721056,0.0687 0.7763,0 1.122163,-0.18186 1.279411,-0.67275 0.06306,-0.19684 0.172589,-0.44633 0.243412,-0.55442 0.100296,-0.15307 0.108293,-0.20335 0.03616,-0.22739 -0.05093,-0.017 -0.17621,-0.12528 -0.278396,-0.24066 -0.177495,-0.20042 -0.204548,-0.20798 -0.60561,-0.1692 -0.230901,0.0223 -0.766166,0.12006 -1.189482,0.21719 -0.423315,0.0971 -0.871994,0.17689 -0.997064,0.17724 -0.19522,5.6e-4 -0.227402,-0.0238 -0.227402,-0.17183 0,-0.0948 0.05667,-0.20279 0.125932,-0.23985 0.281334,-0.15057 2.066086,-0.49729 2.559801,-0.49729 0.565043,0 0.654409,-0.0524 0.83926,-0.49234 0.05601,-0.13329 0.339704,-0.46744 0.630439,-0.74256 0.445598,-0.42167 0.535877,-0.54566 0.574876,-0.78953 0.0967,-0.60476 0.982291,-1.42775 1.621775,-1.50714 0.404581,-0.0502 0.578183,-0.1413 1.534873,-0.80517 1.016795,-0.70559 1.660766,-0.9129 2.147217,-0.69126 0.133331,0.0607 0.225305,0.0589 0.385821,-0.008 0.174702,-0.0724 0.303157,-0.0667 0.750799,0.0328 0.513298,0.1142 0.700895,0.11332 1.43196,-0.007 0.163344,-0.0268 0.326238,-0.004 0.459186,0.065 0.312224,0.16146 0.903009,0.71743 1.326943,1.24876 0.417955,0.52383 0.58218,0.60317 1.034296,0.49971 0.327661,-0.075 0.459889,-0.0529 0.459889,0.0769 0,0.11556 -0.303082,0.25029 -0.563046,0.25029 -0.246995,0 -0.246688,-0.004 -0.06649,0.84457 0.175701,0.8273 0.178652,0.8347 0.333267,0.8347 0.07036,0 0.244527,0.1194 0.387027,0.26533 0.253638,0.25975 0.259094,0.27674 0.259094,0.80685 0,0.42711 -0.02317,0.55039 -0.109658,0.58359 -0.06031,0.0231 -0.145324,0.006 -0.188919,-0.0372 -0.14232,-0.14232 -0.191209,-0.0843 -0.191209,0.22686 0,0.64439 -0.04551,0.7246 -0.546965,0.96392 -0.603965,0.28825 -1.336403,1.02132 -1.817881,1.81946 -0.491856,0.81534 -0.793873,1.06966 -1.438196,1.21108 -0.187681,0.0412 -0.196707,0.0593 -0.150999,0.30305 0.106087,0.56572 0.401918,1.00683 1.204968,1.79671 0.43141,0.42434 0.911548,0.94248 1.066972,1.15143 0.451691,0.60722 0.534419,0.64127 1.437209,0.59157 0.423312,-0.0233 1.044834,-0.10186 1.381153,-0.17456 0.790517,-0.1709 0.888213,-0.16719 1.175418,0.0447 0.282643,0.20852 0.518737,0.18688 0.918929,-0.0843 0.224601,-0.15217 0.303873,-0.16819 0.630392,-0.12739 0.318444,0.0398 0.450723,0.0157 0.89759,-0.16356 0.529186,-0.21226 1.481852,-0.63614 1.529455,-0.68052 0.01417,-0.0132 -0.09018,-0.3168 -0.231908,-0.67463 -0.14173,-0.35782 -0.292182,-0.7401 -0.334338,-0.84951 -0.06691,-0.17365 -0.103276,-0.1936 -0.286258,-0.15701 -0.392681,0.0785 -1.36005,0.13054 -1.548498,0.0832 -0.124316,-0.0312 -0.220984,-0.12637 -0.285714,-0.28129 -0.150472,-0.36013 -0.08388,-0.53214 0.758783,-1.96003 0.563774,-0.95532 0.552323,-0.87243 0.324477,-2.34837 -0.163907,-1.06177 -0.166962,-1.25323 -0.02851,-1.78751 0.160556,-0.61956 0.609862,-1.32264 1.250334,-1.95656 0.62817,-0.62174 1.196603,-0.98342 2.035113,-1.29491 0.307866,-0.11437 0.75655,-0.30893 0.997077,-0.43236 0.476999,-0.24478 0.827178,-0.27824 1.092502,-0.10439 0.08901,0.0583 0.565844,0.17427 1.05963,0.25766 1.341153,0.22648 1.678855,0.37556 2.625107,1.15882 0.910742,0.75388 1.143435,1.08918 1.405102,2.02469 0.124856,0.44638 0.160514,0.77815 0.176059,1.63805 0.02132,1.17938 0.0077,1.14345 0.481103,1.27139 0.521231,0.14088 0.594741,0.22643 0.594741,0.69215 0,0.50022 -0.08487,0.93477 -0.359281,1.83975 -0.113979,0.37587 -0.189609,0.71193 -0.168067,0.74678 0.02155,0.0349 0.135185,0.0845 0.252541,0.11024 0.234978,0.0516 0.425753,0.28195 0.871039,1.05166 0.153112,0.26467 0.49879,0.70332 0.768171,0.97477 0.269384,0.27146 0.737389,0.79007 1.040006,1.15248 0.528765,0.63323 0.75467,0.95575 1.472764,2.10267 0.180711,0.28863 0.500039,0.7701 0.709611,1.06994 l 0.381046,0.54517 v 0.91246 c 0,0.86092 0.01187,0.93948 0.209908,1.39072 0.169669,0.38658 0.210239,0.57661 0.211617,0.9913 0.0024,0.73928 0.08618,1.01753 0.659293,2.19129 0.873555,1.7891 0.891334,1.84929 0.951039,3.21962 0.05298,1.21582 0.210937,2.03291 0.618769,3.20076 0.208306,0.59648 0.42803,1.67755 0.42803,2.10593 0,0.28464 -0.04204,0.43824 -0.172607,0.63064 -0.161818,0.23845 -0.167858,0.27951 -0.09666,0.65698 0.10206,0.54107 0.02734,1.79511 -0.151139,2.5367 -0.211567,0.87906 -0.442327,1.45256 -1.069812,2.65884 -0.778789,1.49715 -0.881602,1.71352 -1.363126,2.86875 -0.232591,0.558 -0.549126,1.28779 -0.703409,1.62173 l -0.280515,0.60718 0.202435,0.26744 c 0.39192,0.51777 0.189689,1.29132 -0.563813,2.15662 -0.524896,0.60277 -0.769189,1.00567 -0.769189,1.26859 0,0.12465 -0.03282,0.31297 -0.07294,0.41849 -0.06298,0.16566 -0.04412,0.232 0.138134,0.48577 0.143766,0.2002 0.20829,0.36916 0.202342,0.52989 -0.0048,0.12979 0.05899,0.36854 0.141752,0.53056 0.182431,0.35715 0.191137,0.65255 0.02802,0.950848 -0.09463,0.17304 -0.122447,0.39086 -0.122447,0.9586 0,0.84457 -0.122943,1.19052 -0.589206,1.65792 -0.146075,0.14643 -0.286988,0.33416 -0.313142,0.41718 -0.02615,0.083 -0.156248,0.28768 -0.289106,0.4548 -0.132858,0.16712 -0.24187,0.34259 -0.24224,0.38991 -7.94e-4,0.0473 -0.05227,0.21499 -0.115333,0.37259 -0.10216,0.25533 -0.176498,0.31647 -0.6822,0.56122 -0.447537,0.21659 -0.624042,0.34855 -0.834702,0.62404 -0.187977,0.24582 -0.473505,0.47616 -0.963465,0.77725 -0.743516,0.45691 -0.903454,0.61724 -0.903454,0.90566 0,0.10011 -0.110202,0.33702 -0.244892,0.52647 -0.134691,0.18944 -0.244893,0.3715 -0.244893,0.40457 0,0.0331 -0.07872,0.12204 -0.174924,0.19772 -0.142246,0.11189 -0.174924,0.19901 -0.174924,0.46638 0,0.18084 -0.06112,0.53277 -0.135828,0.78208 -0.312259,1.04207 -0.503573,1.73744 -0.95248,3.46197 -0.596676,2.2922 -1.079737,3.87109 -1.444979,4.72294 l -0.285002,0.66471 0.07972,0.56339 c 0.101907,0.72013 0.102198,1.74253 5.29e-4,2.18258 -0.06623,0.28695 -0.0537,0.49558 0.07701,1.28228 0.08586,0.51677 0.16941,1.31742 0.185664,1.77922 0.02557,0.72635 0.06182,0.93403 0.268693,1.53932 0.131528,0.38484 0.413851,1.36811 0.627385,2.18507 0.213536,0.81694 0.590713,2.03592 0.838173,2.70882 0.836579,2.27487 0.977574,3.13535 0.980912,5.98636 0.0013,1.09677 -0.0101,2.51366 -0.02528,3.14863 l -0.02763,1.1545 0.249684,0.69969 c 0.336491,0.94295 0.36424,1.19274 0.231676,2.08552 -0.120045,0.80846 -0.09894,1.0057 0.17137,1.60131 0.104159,0.22951 0.137163,0.45835 0.138334,0.95915 7.93e-4,0.36176 0.05076,0.90067 0.110924,1.19759 0.144761,0.71443 0.06418,1.0231 -0.302937,1.16034 -0.02984,0.0112 0.174263,0.94166 0.215626,0.98302 0.02063,0.0206 0.433423,0.0338 0.917313,0.0293 1.224926,-0.0115 1.439571,0.1304 1.439571,0.95185 0,0.42446 -0.158435,0.49192 -0.929446,0.39578 -0.316194,-0.0394 -0.603323,-0.0464 -0.638064,-0.0156 -0.06876,0.0611 -0.02261,0.23921 0.471975,1.82192 0.416968,1.33433 0.613829,2.31654 0.628707,3.13686 l 0.01203,0.66295 -0.441153,0.15846 c -0.605327,0.21744 -1.134899,0.29213 -2.622145,0.36984 -0.701145,0.0366 -1.72147,0.10467 -2.267388,0.15119 -0.870969,0.0742 -1.141008,0.0688 -2.204039,-0.0439 -1.201485,-0.12746 -1.218945,-0.12733 -2.121059,0.0159 -0.768097,0.12194 -1.107354,0.13848 -2.180736,0.1063 -0.722677,-0.0217 -1.71894,-0.003 -2.308992,0.0437 -0.570824,0.045 -1.195291,0.0935 -1.387706,0.10789 -0.192418,0.0144 -0.55685,7.9e-4 -0.809857,-0.0306 z m 16.308087,-7.13059 v -0.27295 l -0.542263,0.0106 c -0.564493,0.011 -0.644362,0.0485 -0.646147,0.30371 -0.0011,0.16377 0.115171,0.19365 0.856056,0.21986 l 0.332354,0.0118 z"/>
</svg>
